<?xml version="1.0" encoding="utf-8"?>
<!-- Generator: Adobe Illustrator 16.0.0, SVG Export Plug-In . SVG Version: 6.00 Build 0)  -->
<!DOCTYPE svg PUBLIC "-//W3C//DTD SVG 1.1//EN" "http://www.w3.org/Graphics/SVG/1.1/DTD/svg11.dtd">
<svg version="1.1" id="Layer_1" xmlns="http://www.w3.org/2000/svg" xmlns:xlink="http://www.w3.org/1999/xlink" x="0px" y="0px"
	 width="1000px" height="1000px" viewBox="0 0 1000 1000" enable-background="new 0 0 1000 1000" xml:space="preserve">
<path fill="#0E161C" d="M976.543,343.75H859.609l-32.5-81.25C793.711,178.965,714.004,125,624.023,125H375.977
	c-89.961,0-169.688,53.965-203.105,137.5l-32.5,81.25H23.457c-15.254,0-26.445,14.336-22.734,29.121l11.719,46.875
	c2.598,10.43,11.973,17.754,22.734,17.754h39.199c-26.23,22.91-43.125,56.211-43.125,93.75V625c0,31.484,12.031,59.902,31.25,81.895
	V812.5c0,34.512,27.988,62.5,62.5,62.5h62.5c34.512,0,62.5-27.988,62.5-62.5V750h500v62.5c0,34.512,27.988,62.5,62.5,62.5H875
	c34.512,0,62.5-27.988,62.5-62.5V706.895c19.219-21.973,31.25-50.391,31.25-81.895v-93.75c0-37.539-16.895-70.84-43.105-93.75
	h39.199c10.762,0,20.137-7.324,22.734-17.754l11.719-46.875C1002.988,358.086,991.797,343.75,976.543,343.75z M288.926,308.926
	C303.164,273.34,337.637,250,375.977,250h248.047c38.34,0,72.813,23.34,87.051,58.926L750,406.25H250L288.926,308.926z
	 M187.5,624.609c-37.5,0-62.5-24.922-62.5-62.305S150,500,187.5,500s93.75,56.074,93.75,93.457S225,624.609,187.5,624.609
	L187.5,624.609z M812.5,624.609c-37.5,0-93.75,6.23-93.75-31.152S775,500,812.5,500s62.5,24.922,62.5,62.305
	S850,624.609,812.5,624.609z"/>
</svg>
