<?xml version="1.0" encoding="utf-8"?>
<!-- Generator: Adobe Illustrator 16.0.0, SVG Export Plug-In . SVG Version: 6.00 Build 0)  -->
<!DOCTYPE svg PUBLIC "-//W3C//DTD SVG 1.1//EN" "http://www.w3.org/Graphics/SVG/1.1/DTD/svg11.dtd">
<svg version="1.1" id="Layer_1" xmlns="http://www.w3.org/2000/svg" xmlns:xlink="http://www.w3.org/1999/xlink" x="0px" y="0px"
	 width="1000px" height="1000px" viewBox="0 0 1000 1000" enable-background="new 0 0 1000 1000" xml:space="preserve">
<path fill="#0E161C" d="M466.992,12.305L60.742,164.648C24.219,178.32,0,213.477,0,252.539v439.648
	c0,35.547,20.117,67.969,51.758,83.789l406.25,203.125c26.367,13.281,57.422,13.281,83.789,0l406.25-203.125
	c31.836-15.82,51.758-48.438,51.758-83.789V252.539c0-39.063-24.219-74.023-60.742-87.695L532.813,12.5
	C511.719,4.297,488.281,4.297,466.992,12.305z M500,133.594l375,140.625v2.148L500,428.711L125,276.367v-2.148L500,133.594z
	 M562.5,828.906v-290.82L875,411.133v261.523L562.5,828.906z"/>
</svg>
