<?xml version="1.0" encoding="utf-8"?>
<!-- Generator: Adobe Illustrator 16.0.0, SVG Export Plug-In . SVG Version: 6.00 Build 0)  -->
<!DOCTYPE svg PUBLIC "-//W3C//DTD SVG 1.1//EN" "http://www.w3.org/Graphics/SVG/1.1/DTD/svg11.dtd">
<svg version="1.1" id="Layer_1" xmlns="http://www.w3.org/2000/svg" xmlns:xlink="http://www.w3.org/1999/xlink" x="0px" y="0px"
	 width="1000px" height="1000px" viewBox="0 0 1000 1000" enable-background="new 0 0 1000 1000" xml:space="preserve">
<path fill="#0E161C" d="M389.945,0c46.143,0,85.598,40.332,85.598,87.5v195.021c33.297-31.914,97.199-35.832,138.563,12.303
	c44.588-27.906,103.549-4.193,121.709,32.129C831.793,309.426,875,369.816,875,468.75c0,5.363-0.396,25.93-0.381,31.25
	c0.328,121.037-60.674,150.184-74.834,241.662c-3.529,22.799-23.225,39.588-46.297,39.588h-335.01l-0.002-0.004
	c-35.871-0.021-70.096-20.717-85.635-55.594c-25.379-56.418-95.777-186.352-151.021-210.027
	c-35.537-15.229-56.805-41.766-56.82-78.125c-0.027-66.84,68.551-112.797,130.68-86.17c16.326,6.998,32.559,16.234,48.668,27.643
	V87.5C304.348,41.699,344.471,0,389.945,0z M390.625,812.5h375c25.889,0,46.875,20.986,46.875,46.875v93.75
	c0,25.889-20.986,46.875-46.875,46.875h-375c-25.889,0-46.875-20.986-46.875-46.875v-93.75
	C343.75,833.486,364.736,812.5,390.625,812.5z M718.75,867.188c-21.574,0-39.063,17.488-39.063,39.063s17.488,39.063,39.063,39.063
	s39.063-17.488,39.063-39.063S740.324,867.188,718.75,867.188z"/>
</svg>
