<?xml version="1.0" encoding="utf-8"?>
<!-- Generator: Adobe Illustrator 16.0.0, SVG Export Plug-In . SVG Version: 6.00 Build 0)  -->
<!DOCTYPE svg PUBLIC "-//W3C//DTD SVG 1.1//EN" "http://www.w3.org/Graphics/SVG/1.1/DTD/svg11.dtd">
<svg version="1.1" id="Layer_1" xmlns="http://www.w3.org/2000/svg" xmlns:xlink="http://www.w3.org/1999/xlink" x="0px" y="0px"
	 width="1024px" height="256px" viewBox="0 0 1024 256" enable-background="new 0 0 1024 256" xml:space="preserve">
<g>
	<path fill="#181818" d="M36.762,98.572c5.75-2.555,12.287-3.85,19.427-3.85c5.231,0,10.22,0.691,14.825,2.057
		c4.538,1.345,8.457,3.34,11.646,5.929c2.94,2.388,3.86,4.181,3.86,4.181c1.701,3.619,6.167,6.454,10.167,6.454h11.434l-0.606-2.385
		c-1.61-6.323-4.932-11.806-9.874-16.296c-4.862-4.42-10.953-7.846-18.104-10.183c-7.086-2.316-14.94-3.49-23.349-3.49
		c-10.707,0-20.383,1.896-28.759,5.633c-8.451,3.773-15.2,9.223-20.062,16.197C2.479,109.834,0,118.249,0,127.83
		s2.479,17.994,7.368,25.008c4.862,6.979,11.612,12.43,20.062,16.198c8.371,3.735,18.046,5.633,28.759,5.633
		c8.407,0,16.262-1.174,23.349-3.489c7.15-2.336,13.241-5.762,18.104-10.183c4.942-4.491,7.408-10.324,7.51-10.569
		c0.847-2.033,0.735-4.095-0.306-5.654c-1.041-1.563-2.899-2.457-5.103-2.457H89.344l-0.407,1.367
		c-1.084,3.649-3.195,6.767-6.276,9.268c-3.188,2.588-7.107,4.583-11.646,5.929c-4.605,1.365-9.594,2.058-14.825,2.058
		c-7.142,0-13.678-1.297-19.427-3.852c-5.663-2.516-10.222-6.27-13.544-11.154c-3.308-4.865-4.983-10.955-4.983-18.101
		c0-7.148,1.676-13.237,4.982-18.101C26.54,104.843,31.097,101.089,36.762,98.572z"/>
	<path fill="#181818" d="M411.222,160.253H365.9c-2.209,0-4.006-1.797-4.006-4.005V90.016c0-4.317-3.512-7.83-7.829-7.83h-3.057
		c-4.316,0-7.83,3.513-7.83,7.83v75.628c0,4.316,3.514,7.83,7.83,7.83h60.212c4.317,0,7.831-2.966,7.831-6.61
		C419.052,163.219,415.539,160.253,411.222,160.253z"/>
	<path fill="#181818" d="M513.623,86.622c-8.375-3.737-18.05-5.633-28.757-5.633s-20.382,1.896-28.758,5.633
		c-8.452,3.772-15.202,9.222-20.063,16.197c-4.892,7.017-7.369,15.432-7.369,25.011c0,9.578,2.479,17.993,7.369,25.008
		c4.862,6.979,11.611,12.43,20.06,16.198c8.371,3.735,18.049,5.633,28.761,5.633c10.713,0,20.387-1.896,28.757-5.633
		c8.446-3.769,15.197-9.218,20.063-16.198c4.89-7.014,7.367-15.428,7.367-25.008c0-9.581-2.479-17.995-7.367-25.011
		C528.822,95.843,522.071,90.394,513.623,86.622z M484.866,160.938c-7.143,0-13.679-1.297-19.427-3.853
		c-5.664-2.515-10.223-6.269-13.545-11.155c-3.307-4.863-4.981-10.953-4.981-18.1c0-7.149,1.676-13.239,4.98-18.101
		c3.323-4.887,7.881-8.641,13.546-11.157c5.75-2.555,12.286-3.85,19.427-3.85c7.139,0,13.675,1.295,19.425,3.85
		c5.667,2.518,10.223,6.271,13.546,11.157c3.305,4.861,4.981,10.951,4.981,18.101c0,7.146-1.678,13.236-4.981,18.1
		c-3.323,4.887-7.882,8.641-13.546,11.155C498.541,159.641,492.005,160.938,484.866,160.938z"/>
	<path fill="#181818" d="M677.796,160.253h-45.323c-2.207,0-4.003-1.797-4.003-4.005V90.016c0-4.317-3.513-7.83-7.831-7.83h-3.056
		c-4.317,0-7.831,3.513-7.831,7.83v75.628c0,4.316,3.514,7.83,7.831,7.83h60.213c4.317,0,7.831-2.966,7.831-6.61
		C685.627,163.219,682.113,160.253,677.796,160.253z"/>
	<path fill="#181818" d="M1020.011,136.209c-2.522-3.01-5.751-5.507-9.589-7.421c-3.714-1.855-7.652-3.346-11.706-4.43
		c-3.946-1.055-4.982-1.274-5.026-1.283c-3.269-0.687-8.487-1.735-11.636-2.337l-6.687-1.281c-2.971-0.555-6.314-1.367-9.938-2.413
		c-3.475-1.001-6.512-2.416-9.026-4.204c-2.188-1.555-3.249-3.524-3.249-6.022c0-3.465,2.11-6.318,6.458-8.725
		c4.652-2.576,10.968-3.882,18.766-3.882c7.127,0,13.2,1.146,18.045,3.406c4.223,1.973,5.309,3.819,5.313,3.819
		c1.711,3.61,6.183,6.439,10.181,6.439h10.494l-0.093-2c-0.224-4.901-2.351-9.316-6.321-13.123c-3.816-3.658-9-6.57-15.409-8.659
		c-6.327-2.06-13.638-3.104-21.727-3.104c-8.01,0-15.366,1.058-21.868,3.145c-6.603,2.119-11.945,5.146-15.882,8.995
		c-4.107,4.015-6.189,8.793-6.189,14.201c0,6.557,3.121,11.909,9.274,15.91c5.784,3.763,17.161,6.939,17.645,7.072
		c3.16,0.875,8.378,2.127,11.632,2.791l9.342,1.896c4.237,0.837,8.234,1.827,11.88,2.941c3.469,1.063,6.286,2.444,8.37,4.106
		c1.818,1.453,2.703,3.284,2.703,5.597c0,2.645-1.09,4.91-3.33,6.927c-2.411,2.173-5.776,3.899-10.002,5.138
		c-4.33,1.266-9.303,1.909-14.774,1.909c-4.707,0-9.149-0.507-13.201-1.504c-3.938-0.968-7.211-2.459-9.724-4.431
		c-1.506-1.18-2.131-1.765-2.361-1.998c-1.404-3.724-5.479-6.588-9.448-6.588h-11.568l0.212,2.104
		c0.783,7.793,5.389,14.148,13.683,18.895c8.021,4.588,18.924,6.913,32.409,6.913c9.609,0,17.927-1.169,24.722-3.475
		c6.906-2.347,12.267-5.582,15.933-9.622c3.774-4.161,5.688-8.905,5.688-14.1C1024,143.273,1022.657,139.369,1020.011,136.209z"/>
	<path fill="#181818" d="M184.041,88.479c-1.821-3.528-6.36-6.293-10.332-6.293h-3.534c-3.974,0-8.511,2.765-10.333,6.293
		l-39.72,76.946c-1.024,1.984-1.066,4.021-0.112,5.585c0.953,1.565,2.781,2.465,5.015,2.465h3.776c3.981,0,8.493-2.791,10.27-6.354
		l31.46-63.036c0.526-1.052,1.005-1.957,1.412-2.691c0.407,0.734,0.887,1.64,1.41,2.691l31.459,63.036
		c1.778,3.563,6.289,6.354,10.272,6.354h3.773c2.236,0,4.063-0.898,5.016-2.464c0.954-1.563,0.913-3.602-0.112-5.586L184.041,88.479
		z"/>
	<path fill="#181818" d="M309.697,159.445h-63.4c-4.316,0-7.829,3.146-7.829,7.015c0,3.866,3.513,7.015,7.829,7.015h63.4
		c4.317,0,7.83-3.147,7.83-7.015S314.016,159.445,309.697,159.445z"/>
	<path fill="#181818" d="M246.297,96.213h63.4c4.317,0,7.83-3.146,7.83-7.014c0-3.867-3.513-7.014-7.83-7.014h-63.4
		c-4.316,0-7.829,3.146-7.829,7.014C238.468,93.067,241.98,96.213,246.297,96.213z"/>
	<path fill="#181818" d="M327.552,121.134h-58.531c-4.318,0-7.831,3.146-7.831,7.014c0,3.866,3.513,7.013,7.831,7.013h58.531
		c4.317,0,7.831-3.146,7.831-7.013S331.869,121.134,327.552,121.134z"/>
	<path fill="#181818" d="M255.651,128.147c0-3.867-3.514-7.014-7.831-7.014h-19.377c-4.317,0-7.831,3.146-7.831,7.014
		c0,3.867,3.514,7.013,7.831,7.013h19.377C252.138,135.16,255.651,132.014,255.651,128.147z"/>
	<path fill="#181818" d="M768.817,88.479c-1.822-3.528-6.36-6.293-10.333-6.293h-3.534c-3.974,0-8.511,2.765-10.333,6.293
		l-39.721,76.948c-1.024,1.983-1.064,4.021-0.111,5.584c0.953,1.566,2.78,2.464,5.015,2.464h3.775c3.981,0,8.494-2.791,10.271-6.354
		l31.458-63.036c0.525-1.051,1.005-1.957,1.411-2.69c0.407,0.733,0.888,1.64,1.412,2.69l31.458,63.036
		c1.778,3.563,6.29,6.354,10.272,6.354h3.773c2.234,0,4.062-0.896,5.015-2.464c0.953-1.563,0.913-3.601-0.11-5.586L768.817,88.479z"
		/>
	<path fill="#181818" d="M901.654,127.537c-2.376-1.067-3.996-1.603-4.953-1.865c0.695-0.261,1.799-0.715,3.452-1.493
		c3.293-1.55,5.995-3.697,8.032-6.381c2.11-2.778,3.184-6.3,3.184-10.468c0-4.684-1.509-9.007-4.484-12.851
		c-2.928-3.783-7.391-6.823-13.266-9.033c-5.764-2.167-15.426-2.834-15.835-2.861c-3.278-0.22-8.64-0.399-11.949-0.399H834.68
		c-4.316,0-7.83,2.966-7.83,6.61s3.514,6.609,7.83,6.609l31.155,0.001c3.204,0,8.422,0.248,11.625,0.552
		c2.15,0.205,8.327,1.166,11.069,3.126c3.26,2.331,4.845,5.029,4.845,8.246c0,3.923-1.973,7.004-6.03,9.417
		c-4.221,2.511-10.344,3.225-10.401,3.231c-3.193,0.354-8.392,0.642-11.589,0.642H834.68c-4.316,0-7.83,2.928-7.83,6.526
		c0,3.597,3.514,6.523,7.83,6.523h33.315c3.222,0,8.456,0.199,11.672,0.445c0.039,0.003,3.864,0.307,7.479,1.71
		c3.602,1.396,6.394,3.253,8.298,5.514c1.839,2.184,2.729,4.469,2.729,6.989c0,3.185-1.729,5.866-5.289,8.2
		c-3.025,1.983-11.096,3.021-13.949,3.254c-3.203,0.26-8.436,0.471-11.66,0.471H834.68c-4.316,0-7.83,2.965-7.83,6.609
		c0,3.646,3.514,6.611,7.83,6.611h32.597c3.306,0,8.661-0.156,11.937-0.35c0.486-0.027,11.973-0.718,18.189-2.827
		c6.367-2.159,11.126-5.168,14.147-8.946c3.066-3.834,4.622-8.216,4.622-13.022c0-5.036-1.436-9.376-4.266-12.9
		C909.164,132.016,905.715,129.359,901.654,127.537z"/>
</g>
</svg>
