<?xml version="1.0" encoding="utf-8"?>
<!-- Generator: Adobe Illustrator 16.0.0, SVG Export Plug-In . SVG Version: 6.00 Build 0)  -->
<!DOCTYPE svg PUBLIC "-//W3C//DTD SVG 1.1//EN" "http://www.w3.org/Graphics/SVG/1.1/DTD/svg11.dtd">
<svg version="1.1" id="ea98fdbc-a252-4665-af64-abf278d5674c"
	 xmlns="http://www.w3.org/2000/svg" xmlns:xlink="http://www.w3.org/1999/xlink" x="0px" y="0px" width="891px" height="711.05px"
	 viewBox="0 0 891 711.05" enable-background="new 0 0 891 711.05" xml:space="preserve">
<title>data</title>
<ellipse fill="#F2F2F2" cx="370" cy="694.05" rx="67" ry="17"/>
<ellipse fill="#F2F2F2" cx="375" cy="506.05" rx="67" ry="17"/>
<ellipse fill="#F2F2F2" cx="67" cy="514.05" rx="67" ry="17"/>
<rect x="22.62" y="4" fill="#F5F5F5" width="383" height="14.5"/>
<linearGradient id="SVGID_1_" gradientUnits="userSpaceOnUse" x1="19.6196" y1="330.0508" x2="19.6196" y2="816.0498" gradientTransform="matrix(1 0 0 -1 194 816.0498)">
	<stop  offset="0" style="stop-color:#808080;stop-opacity:0.25"/>
	<stop  offset="0.54" style="stop-color:#808080;stop-opacity:0.12"/>
	<stop  offset="1" style="stop-color:#808080;stop-opacity:0.1"/>
</linearGradient>
<rect x="15.62" fill="url(#SVGID_1_)" width="396" height="486"/>
<rect x="22.62" y="18.5" fill="#FFFFFF" width="383" height="459.5"/>
<circle fill="#FF5252" cx="30.5" cy="11.5" r="3.5"/>
<circle fill="#FFFF00" cx="40.12" cy="11.5" r="3.5"/>
<circle fill="#69F0AE" cx="49.75" cy="11.5" r="3.5"/>
<g opacity="0.2">
	<rect x="33.62" y="36" fill="#6415FF" width="149" height="9"/>
</g>
<rect x="139.62" y="73" fill="#F5F5F5" width="149" height="9"/>
<rect x="33.62" y="363" opacity="0.5" fill="#6415FF" enable-background="new    " width="149" height="9"/>
<linearGradient id="SVGID_2_" gradientUnits="userSpaceOnUse" x1="33.6196" y1="443.0503" x2="33.6196" y2="454.0503" gradientTransform="matrix(1 0 0 -1 194 816.0498)">
	<stop  offset="0" style="stop-color:#808080;stop-opacity:0.25"/>
	<stop  offset="0.54" style="stop-color:#808080;stop-opacity:0.12"/>
	<stop  offset="1" style="stop-color:#808080;stop-opacity:0.1"/>
</linearGradient>
<rect x="202.62" y="362" fill="url(#SVGID_2_)" width="50" height="11"/>
<linearGradient id="SVGID_3_" gradientUnits="userSpaceOnUse" x1="33.6196" y1="387.0503" x2="33.6196" y2="398.0503" gradientTransform="matrix(1 0 0 -1 194 816.0498)">
	<stop  offset="0" style="stop-color:#808080;stop-opacity:0.25"/>
	<stop  offset="0.54" style="stop-color:#808080;stop-opacity:0.12"/>
	<stop  offset="1" style="stop-color:#808080;stop-opacity:0.1"/>
</linearGradient>
<rect x="202.62" y="418" fill="url(#SVGID_3_)" width="50" height="11"/>
<linearGradient id="SVGID_4_" gradientUnits="userSpaceOnUse" x1="135.6196" y1="387.0503" x2="135.6196" y2="398.0503" gradientTransform="matrix(1 0 0 -1 194 816.0498)">
	<stop  offset="0" style="stop-color:#808080;stop-opacity:0.25"/>
	<stop  offset="0.54" style="stop-color:#808080;stop-opacity:0.12"/>
	<stop  offset="1" style="stop-color:#808080;stop-opacity:0.1"/>
</linearGradient>
<rect x="304.62" y="418" fill="url(#SVGID_4_)" width="50" height="11"/>
<rect x="204.62" y="363" fill="#6415FF" width="47" height="9"/>
<rect x="204.62" y="419" fill="#6415FF" width="47" height="9"/>
<rect x="305.62" y="419" fill="#6415FF" width="47" height="9"/>
<rect x="33.62" y="391" fill="#F5F5F5" width="149" height="9"/>
<rect x="204.62" y="391" opacity="0.5" fill="#6415FF" enable-background="new    " width="149" height="9"/>
<rect x="204.62" y="447" fill="#F5F5F5" width="149" height="9"/>
<rect x="33.62" y="419" opacity="0.5" fill="#6415FF" enable-background="new    " width="149" height="9"/>
<rect x="33.62" y="447" fill="#F5F5F5" width="149" height="9"/>
<rect x="139.62" y="88" fill="#F5F5F5" width="84" height="9"/>
<rect x="238.62" y="88" fill="#F5F5F5" width="29" height="9"/>
<rect x="139.62" y="118" fill="#F5F5F5" width="84" height="9"/>
<rect x="238.62" y="118" fill="#F5F5F5" width="29" height="9"/>
<rect x="139.62" y="103" fill="#F5F5F5" width="149" height="9"/>
<g opacity="0.2">
	<rect x="243.62" y="36" fill="#6415FF" width="149" height="9"/>
</g>
<linearGradient id="SVGID_5_" gradientUnits="userSpaceOnUse" x1="142.6196" y1="733.0493" x2="142.6196" y2="744.0493" gradientTransform="matrix(1 0 0 -1 194 816.0498)">
	<stop  offset="0" style="stop-color:#808080;stop-opacity:0.25"/>
	<stop  offset="0.54" style="stop-color:#808080;stop-opacity:0.12"/>
	<stop  offset="1" style="stop-color:#808080;stop-opacity:0.1"/>
</linearGradient>
<rect x="327.62" y="72" fill="url(#SVGID_5_)" width="18" height="11"/>
<linearGradient id="SVGID_6_" gradientUnits="userSpaceOnUse" x1="142.6196" y1="718.0493" x2="142.6196" y2="729.0493" gradientTransform="matrix(1 0 0 -1 194 816.0498)">
	<stop  offset="0" style="stop-color:#808080;stop-opacity:0.25"/>
	<stop  offset="0.54" style="stop-color:#808080;stop-opacity:0.12"/>
	<stop  offset="1" style="stop-color:#808080;stop-opacity:0.1"/>
</linearGradient>
<rect x="327.62" y="87" fill="url(#SVGID_6_)" width="18" height="11"/>
<linearGradient id="SVGID_7_" gradientUnits="userSpaceOnUse" x1="142.6196" y1="703.0493" x2="142.6196" y2="714.0493" gradientTransform="matrix(1 0 0 -1 194 816.0498)">
	<stop  offset="0" style="stop-color:#808080;stop-opacity:0.25"/>
	<stop  offset="0.54" style="stop-color:#808080;stop-opacity:0.12"/>
	<stop  offset="1" style="stop-color:#808080;stop-opacity:0.1"/>
</linearGradient>
<rect x="327.62" y="102" fill="url(#SVGID_7_)" width="18" height="11"/>
<rect x="328.62" y="73" fill="#FF5252" width="16" height="9"/>
<rect x="328.62" y="88" fill="#FF9800" width="16" height="9"/>
<rect x="328.62" y="103" fill="#69F0AE" width="16" height="9"/>
<linearGradient id="SVGID_8_" gradientUnits="userSpaceOnUse" x1="142.6196" y1="688.0493" x2="142.6196" y2="699.0493" gradientTransform="matrix(1 0 0 -1 194 816.0498)">
	<stop  offset="0" style="stop-color:#808080;stop-opacity:0.25"/>
	<stop  offset="0.54" style="stop-color:#808080;stop-opacity:0.12"/>
	<stop  offset="1" style="stop-color:#808080;stop-opacity:0.1"/>
</linearGradient>
<rect x="327.62" y="117" fill="url(#SVGID_8_)" width="18" height="11"/>
<rect x="328.62" y="118" fill="#6415FF" width="16" height="9"/>
<linearGradient id="SVGID_9_" gradientUnits="userSpaceOnUse" x1="20.1196" y1="484.0493" x2="20.1196" y2="634.0493" gradientTransform="matrix(1 0 0 -1 194 816.0498)">
	<stop  offset="0" style="stop-color:#808080;stop-opacity:0.25"/>
	<stop  offset="0.54" style="stop-color:#808080;stop-opacity:0.12"/>
	<stop  offset="1" style="stop-color:#808080;stop-opacity:0.1"/>
</linearGradient>
<rect x="30.62" y="182" fill="url(#SVGID_9_)" width="367" height="150"/>
<rect x="33.62" y="185" opacity="0.5" fill="#6415FF" enable-background="new    " width="359" height="142"/>
<polygon opacity="0.5" fill="#FFFFFF" enable-background="new    " points="44.62,196 392.62,196 392.62,185 33.62,185 33.62,327 
	44.62,327 "/>
<linearGradient id="SVGID_10_" gradientUnits="userSpaceOnUse" x1="186.853" y1="393.6001" x2="186.853" y2="545.6001" gradientTransform="matrix(0.9959 -0.0906 -0.0906 -0.9959 80.0817 749.6346)">
	<stop  offset="0" style="stop-color:#808080;stop-opacity:0.25"/>
	<stop  offset="0.54" style="stop-color:#808080;stop-opacity:0.12"/>
	<stop  offset="1" style="stop-color:#808080;stop-opacity:0.1"/>
</linearGradient>
<polygon fill="url(#SVGID_10_)" points="32.478,206.11 400.955,172.576 414.731,323.951 46.254,357.485 "/>
<rect x="44.508" y="192.978" transform="matrix(-0.9959 0.0906 -0.0906 -0.9959 471.0187 506.5667)" fill="#FFFFFF" width="359" height="142"/>
<path opacity="0.5" fill="#6415FF" enable-background="new    " d="M65.5,325.59l-6.2-78.77c0,0,32-34,96.6-8.8
	s95.06,7.41,105.56-9.61s65-36,82.66-7.53c17.66,28.47,38.84-3.54,38.84-3.54l7.16,78.67L65.5,325.59z"/>
<line fill="none" stroke="#6415FF" stroke-miterlimit="10" x1="98.03" y1="229.66" x2="98.57" y2="235.64"/>
<line fill="none" stroke="#6415FF" stroke-miterlimit="10" stroke-dasharray="11.51,11.51" x1="99.62" y1="247.1" x2="105.36" y2="310.16"/>
<line fill="none" stroke="#6415FF" stroke-miterlimit="10" x1="105.88" y1="315.89" x2="106.43" y2="321.86"/>
<line fill="none" stroke="#6415FF" stroke-miterlimit="10" x1="159.52" y1="239.42" x2="160.07" y2="245.39"/>
<line fill="none" stroke="#6415FF" stroke-miterlimit="10" stroke-dasharray="13.06,13.06" x1="161.25" y1="258.4" x2="165.4" y2="303.91"/>
<line fill="none" stroke="#6415FF" stroke-miterlimit="10" x1="165.99" y1="310.41" x2="166.53" y2="316.39"/>
<line fill="none" stroke="#6415FF" stroke-miterlimit="10" x1="222.26" y1="250.1" x2="222.86" y2="256.07"/>
<line fill="none" stroke="#6415FF" stroke-miterlimit="10" stroke-dasharray="9.79,9.79" x1="223.83" y1="265.82" x2="227.21" y2="299.92"/>
<line fill="none" stroke="#6415FF" stroke-miterlimit="10" x1="227.7" y1="304.79" x2="228.29" y2="310.77"/>
<line fill="none" stroke="#6415FF" stroke-miterlimit="10" x1="278.65" y1="214.84" x2="279.19" y2="220.82"/>
<line fill="none" stroke="#6415FF" stroke-miterlimit="10" stroke-dasharray="11.28,11.28" x1="280.21" y1="232.05" x2="285.84" y2="293.84"/>
<line fill="none" stroke="#6415FF" stroke-miterlimit="10" x1="286.35" y1="299.45" x2="286.9" y2="305.43"/>
<line fill="none" stroke="#6415FF" stroke-miterlimit="10" x1="319.35" y1="206.59" x2="319.89" y2="212.56"/>
<line fill="none" stroke="#6415FF" stroke-miterlimit="10" stroke-dasharray="11.93,11.93" x1="320.97" y1="224.44" x2="326.92" y2="289.77"/>
<line fill="none" stroke="#6415FF" stroke-miterlimit="10" x1="327.46" y1="295.71" x2="328.01" y2="301.68"/>
<circle fill="#FF9800" cx="97.842" cy="229.276" r="5"/>
<circle fill="#FF5252" cx="159.042" cy="239.776" r="5"/>
<circle fill="#69F0AE" cx="222.246" cy="250.085" r="5"/>
<linearGradient id="SVGID_11_" gradientUnits="userSpaceOnUse" x1="245.8628" y1="507.6118" x2="245.8628" y2="521.6108" gradientTransform="matrix(0.9959 -0.0906 -0.0906 -0.9959 80.072 749.6385)">
	<stop  offset="0" style="stop-color:#808080;stop-opacity:0.25"/>
	<stop  offset="0.54" style="stop-color:#808080;stop-opacity:0.12"/>
	<stop  offset="1" style="stop-color:#808080;stop-opacity:0.1"/>
</linearGradient>
<circle fill="url(#SVGID_11_)" cx="278.282" cy="214.861" r="7"/>
<linearGradient id="SVGID_12_" gradientUnits="userSpaceOnUse" x1="287.853" y1="511.6011" x2="287.853" y2="525.6011" gradientTransform="matrix(0.9959 -0.0906 -0.0906 -0.9959 80.0798 749.6326)">
	<stop  offset="0" style="stop-color:#808080;stop-opacity:0.25"/>
	<stop  offset="0.54" style="stop-color:#808080;stop-opacity:0.12"/>
	<stop  offset="1" style="stop-color:#808080;stop-opacity:0.1"/>
</linearGradient>
<circle fill="url(#SVGID_12_)" cx="319.746" cy="207.076" r="7"/>
<circle fill="#6415FF" cx="278.282" cy="214.861" r="5"/>
<circle fill="#6415FF" cx="319.746" cy="207.076" r="5"/>
<circle fill="#69F0AE" cx="383.12" cy="219.381" r="5"/>
<g opacity="0.2">
	
		<linearGradient id="SVGID_13_" gradientUnits="userSpaceOnUse" x1="353.9565" y1="402.6304" x2="353.9565" y2="402.8904" gradientTransform="matrix(1 0 0 -1 39.5 721.5693)">
		<stop  offset="0" style="stop-color:#808080;stop-opacity:0.25"/>
		<stop  offset="0.54" style="stop-color:#808080;stop-opacity:0.12"/>
		<stop  offset="1" style="stop-color:#808080;stop-opacity:0.1"/>
	</linearGradient>
	<path fill="url(#SVGID_13_)" d="M393.26,318.72l0.07,0.23C394.1,318.52,393.26,318.72,393.26,318.72z"/>
</g>
<g opacity="0.2">
	
		<linearGradient id="SVGID_14_" gradientUnits="userSpaceOnUse" x1="323.603" y1="234.7891" x2="323.603" y2="407.5674" gradientTransform="matrix(1 0 0 -1 39.5 721.5693)">
		<stop  offset="0" style="stop-color:#808080;stop-opacity:0.25"/>
		<stop  offset="0.54" style="stop-color:#808080;stop-opacity:0.12"/>
		<stop  offset="1" style="stop-color:#808080;stop-opacity:0.1"/>
	</linearGradient>
	<path fill="url(#SVGID_14_)" d="M384.98,486.701l16.279-2.631l-2.24-10l0,0v-0.141h-0.06l-11.54-53v-38.648
		c-0.001-0.492-0.028-0.982-0.08-1.471c17.24-22.859,7-58.73,6-61.86c-0.18,0.09-0.45,0.21-0.83,0.36
		c-0.125-1.4-0.39-2.783-0.79-4.13c0,0-5-3.18-7.729,0.91c-2.38,3.57-0.61,5.75-0.12,6.26l-0.34,0.11
		c0.766,1.204,1.302,2.54,1.58,3.94c-0.158-0.345-0.339-0.679-0.54-1c-0.63-0.11-1-0.21-1-0.21l-0.12-0.11l-0.34,0.11
		c1.729,2.53,2.34,7,2.26,12.3c-0.598-0.828-1.267-1.601-2-2.31c-3.161-3.02-7.33-4.758-11.7-4.88h-0.83
		c-0.453,0-0.906,0.03-1.359,0.09h-0.341l-0.569,0.08l-0.65,0.12l-0.47,0.1l-0.811,0.22l-0.3,0.09c-0.34,0.11-0.67,0.22-1,0.35
		c-1.096,0.533-2.246,0.949-3.43,1.24c-0.16,0-0.32,0-0.49,0.05l0,0c-1.337,0.093-2.664-0.285-3.75-1.07l-0.359-0.28
		c-0.137-0.117-0.267-0.24-0.391-0.37c-0.136,0.347-0.193,0.719-0.17,1.09c0.075,0.882,0.496,1.698,1.17,2.27
		c0.189,0.164,0.397,0.305,0.62,0.42c0.329,0.172,0.689,0.274,1.06,0.3h0.381h-0.091c-0.229,0.11-0.46,0.21-0.699,0.3h-0.051
		c-0.26,0.09-0.51,0.17-0.779,0.24l0,0c-1.311,0.331-2.681,0.352-4,0.06l0,0l-0.431-0.1c-0.21-0.06-0.43-0.12-0.63-0.19
		c0.065,0.15,0.14,0.297,0.22,0.44l0.08,0.13l0.181,0.28l0.109,0.14l0.2,0.25l0.12,0.13l0.25,0.25l0.1,0.09l0.37,0.31l0.13,0.09
		l0.271,0.19l0.18,0.11l0.24,0.14l0.2,0.1l0.25,0.11l0.21,0.09l0.279,0.1l0.351,0.1l0.26,0.07h0.25h0.23h0.26h1
		c0.516-0.044,1.022-0.169,1.5-0.37l-0.92,0.38l0,0l-0.46,0.16l-0.471,0.17l-0.47,0.14l-0.479,0.14l-0.471,0.12l-0.5,0.12
		l-0.46,0.09l-0.529,0.09l-0.44,0.07l-0.57,0.07h-0.409h-0.65h-0.34h-1c0.553,0.161,1.066,0.433,1.51,0.8
		c0.286,0.207,0.6,0.375,0.93,0.5c0.148,0.043,0.299,0.076,0.45,0.1h0.13h0.32h1.351h0.439c0.912,0.092,1.794,0.375,2.59,0.83
		c0.422,0.271,0.797,0.609,1.11,1c-0.141,0.23-0.28,0.45-0.4,0.69c-0.12,0.24-0.21,0.4-0.31,0.61c-0.2,0.413-0.377,0.836-0.53,1.27
		c-0.569,1.553-0.86,3.195-0.86,4.85c0,0.31,0,0.61,0,0.91c0,0.08,0,0.17,0,0.25c0,0.24,0.027,0.48,0.08,0.72v0.19
		c0.04,0.293,0.094,0.583,0.16,0.87v0.17c0.054,0.24,0.113,0.477,0.18,0.71l0.061,0.21c0.168,0.565,0.372,1.12,0.609,1.66l0.07,0.16
		c0.113,0.247,0.23,0.487,0.351,0.72v0.07c0.146,0.267,0.3,0.529,0.46,0.79v0.06c0.146,0.24,0.303,0.474,0.47,0.701l0.06,0.079
		c0.359,0.495,0.75,0.966,1.17,1.41l0,0c1.09,1.147,2.364,2.104,3.771,2.83c-0.048,0.214-0.085,0.432-0.11,0.649l0,0
		c-0.012,0.227-0.012,0.454,0,0.681v5.28c-0.3,0.16-0.593,0.33-0.88,0.51c-12.53-5.689-31.189-46-31.189-46h-0.45
		c1.819-1.36,0-7.28,0-7.28c-1.068-0.637-2.263-1.033-3.5-1.16h-1h-0.181h-0.13h-0.18h-0.12l-0.2,0.06h-0.1l-0.3,0.11l0,0
		l-0.28,0.13l-0.1,0.05l-0.19,0.11l-0.13,0.61l-0.18,0.12l-0.11,0.09l-0.17,0.14l-0.11,0.1l-0.17,0.16l-0.1,0.11l-0.17,0.2
		l-0.08,0.1l-0.25,0.34c-2.73,4.09,0,6.37,0,6.37c-0.176,1.577-0.26,3.163-0.25,4.75c-0.2,29.46,31.33,52.291,32.939,53.43
		c-0.71,1.84-6.569,18.14,0.07,38.489c0.021,0.051,0.048,0.098,0.08,0.141c-15.383,14.176-22.123,35.43-17.72,55.881l0.13,0.609
		h0.29c-0.03,0.135-0.066,0.268-0.11,0.4c-0.077,0.24-0.174,0.475-0.29,0.699c-0.199,0.385-0.444,0.744-0.729,1.07l0,0
		c-0.311,0.359-0.67,0.721-1.051,1.09l-0.399,0.381c-1.59,1.52-3.2,3-2,3.6h17.21v-7.51h0.3c0,0-0.12-0.23-0.3-0.682v-0.08h-0.061
		c-0.899-2.318-3-9.5,0.36-20.559c4.09-13.65,20-20.471,20-20.471l0.29,1h-0.06l12.479,41c0,0.16,0,0.32-0.05,0.49
		c-0.057,0.387-0.146,0.77-0.271,1.141c-0.096,0.287-0.209,0.566-0.34,0.84c-0.77,1.59-2.1,3.459-2.68,4.859
		c-0.083,0.191-0.153,0.389-0.21,0.59c-0.068,0.227-0.093,0.465-0.07,0.701c0.035,0.305,0.24,0.564,0.53,0.67l0,0h0.229l0.48-0.08
		H384.98z M380.16,369.97c-0.313-0.174-0.646-0.337-1-0.49v-4.96c-0.003-0.38-0.04-0.757-0.11-1.13c1.078-0.514,2.086-1.162,3-1.93
		c-0.6,3.06-1.27,5.99-1.88,8.51H380.16z"/>
</g>
<path fill="#CA7070" d="M325.88,328.61c0,0-3-2.52,0-7.06s8.57-1,8.57-1s2,6.55,0,8.06C332.45,330.12,325.88,328.61,325.88,328.61z"
	/>
<path id="cbb1ca8a-3a06-4d8d-9881-c3637d2b9b50" fill="#00695C" d="M357.04,497.269h-13.89c0.104,1.324-0.375,2.629-1.311,3.57
	c-1.87,2.16-5.63,4.771-3.859,5.66h19.06V497.269z"/>
<path opacity="0.2" fill="#FFFFFF" enable-background="new    " d="M342.85,500.839c0.937-0.941,1.414-2.246,1.311-3.57h-1
	c0.104,1.324-0.374,2.629-1.311,3.57c-1.869,2.16-5.63,4.771-3.859,5.66h1C337.22,505.611,340.98,503.009,342.85,500.839z"/>
<path id="ec846da8-b8c9-4838-98ee-b96510078eab" fill="#00695C" d="M406.5,494.41l-13,2.109c0.359,1.549,0.15,3.174-0.59,4.58
	c-1.42,3-4.61,6.74-2.69,7.551l18.82-3L406.5,494.41z"/>
<path fill="#00695C" d="M400.16,322.46c0,0,14.87,46.911-10.07,72.879l-7.2-5.51c0,0,14.74-51.2,6.49-63.22
	C403.94,321.76,400.16,322.46,400.16,322.46z"/>
<path fill="#CA7070" d="M389.88,326.6c0,0-3-2.52,0-7.06s8.57-1,8.57-1s2,6.55,0,8.06C396.45,328.11,389.88,326.6,389.88,326.6z"/>
<path opacity="0.2" fill="#FFFFFF" enable-background="new    " d="M393.91,501.111c0.742-1.41,0.952-3.039,0.59-4.592l12-2v-0.158
	l-13,2.158c0.359,1.549,0.15,3.174-0.59,4.58c-1.42,3-4.61,6.74-2.69,7.551l0.79-0.131
	C389.58,507.519,392.55,503.929,393.91,501.111z"/>
<path fill="#CA7070" d="M377.535,366.16L377.535,366.16c3.896,0,7.055,3.161,7.055,7.061v6.789c0,3.9-3.158,7.061-7.055,7.061l0,0
	c-3.896,0-7.055-3.16-7.055-7.061v-6.789C370.48,369.321,373.639,366.16,377.535,366.16z"/>
<path opacity="0.2" fill="#FFFFFF" enable-background="new    " d="M383.9,392.85c0,0,14.56-50.57,6.63-63
	c-0.7-0.13-1.15-0.23-1.15-0.23l-0.13-0.12l-0.37,0.12c8.25,12-6.49,63.219-6.49,63.219l7.2,5.51l0.63-0.68L383.9,392.85z"/>
<circle fill="#CA7070" cx="377.79" cy="357.85" r="15.62"/>
<path opacity="0.2" fill="#FFFFFF" enable-background="new    " d="M372.24,380.02v-6.8c0-0.498,0.054-0.994,0.16-1.48
	c-7.674-3.941-10.7-13.357-6.759-21.031c2.531-4.929,7.485-8.148,13.019-8.459h-0.88c-8.627-0.003-15.622,6.988-15.625,15.615
	c-0.002,5.854,3.27,11.218,8.475,13.895c-0.105,0.486-0.159,0.982-0.16,1.48v6.801c-0.035,3.865,3.07,7.027,6.937,7.063
	c0.336,0.004,0.671-0.018,1.004-0.063C374.882,386.583,372.24,383.578,372.24,380.02z"/>
<path fill="#00695C" d="M393.66,435.701c0,0-30.13,3.398-31.24,0c-7.81-23.941,0-42.83,0-42.83c0-8.627,6.993-15.621,15.62-15.621
	l0,0c8.627,0,15.62,6.994,15.62,15.621V435.701z"/>
<path fill="#263238" d="M393.66,435.701l13.609,62.49H393.66l-14.11-46.361c0,0-17.64,7.561-22.17,22.68
	c-4.53,15.121,0,23.682,0,23.682h-14.62l-0.149-0.682c-4.896-22.66,2.649-46.211,19.8-61.809l0,0"/>
<path opacity="0.2" fill="#FFFFFF" enable-background="new    " d="M364.18,435.701c-7.81-23.941,0-42.83,0-42.83
	c-0.001-8.236,6.392-15.059,14.61-15.59c-0.33,0-0.67,0-1,0l0,0c-8.627,0-15.62,6.992-15.62,15.619c0,0-7.81,18.9,0,42.83
	c0.4,1.221,4.521,1.561,9.64,1.51C367.65,437.15,364.5,436.75,364.18,435.701z"/>
<path fill="#00695C" d="M362.17,392.61c0,0-40.31-28.22-36.28-64h9.07c0,0,21.66,46.91,35.54,51.41S362.17,392.61,362.17,392.61z"/>
<g opacity="0.2">
	<path fill="#FFFFFF" d="M379.81,452.929l13.851,45.512h2l-14.11-46.361C381.55,452.08,380.9,452.361,379.81,452.929z"/>
	<path fill="#FFFFFF" d="M364.43,435.951h-2c-17.15,15.598-24.694,39.148-19.8,61.809l0.15,0.682h2l-0.15-0.682
		C339.735,475.099,347.279,451.548,364.43,435.951z"/>
</g>
<path opacity="0.2" fill="#FFFFFF" enable-background="new    " d="M327.4,329.12h-1.511c-4,35.78,36.28,64,36.28,64l1-0.381
	C358.5,389.291,323.63,362.52,327.4,329.12z"/>
<path fill="#263238" d="M365.33,350.87c0.871,2.011,1.482,4.125,1.82,6.29c1,4.381,3.26,8.75,7.149,11
	c2.155,1.169,4.551,1.822,7,1.91c3.72,0.23,7.75-0.49,10.38-3.13c1.639-1.788,2.737-4.003,3.17-6.39
	c1.6-7.163-0.543-14.648-5.689-19.88c-5.307-5.125-13.082-6.754-20-4.19c-1.211,0.592-2.481,1.055-3.79,1.38
	c-2.033,0.326-4.098-0.361-5.53-1.84c-0.568,1.841,0.463,3.796,2.305,4.365c0.345,0.106,0.704,0.159,1.065,0.155
	c-2.334,1.121-5.02,1.265-7.46,0.4c1.421,2.993,4.909,4.384,8,3.19c-2.831,1.26-5.902,1.888-9,1.84c0.65,0,1.92,1.2,2.71,1.44
	c0.992,0.157,1.996,0.228,3,0.21C362.55,347.749,364.409,348.99,365.33,350.87z"/>
<g opacity="0.2">
	<path fill="#FFFFFF" d="M363.25,340.52c-1.157,0.561-2.416,0.884-3.7,0.95c1.625,0.083,3.245-0.244,4.71-0.95
		c-1.949,0.012-3.539-1.559-3.551-3.509c-0.001-0.101,0.003-0.201,0.011-0.301c-0.301-0.21-0.582-0.448-0.84-0.71
		c-0.569,1.842,0.463,3.796,2.305,4.365C362.529,340.471,362.889,340.523,363.25,340.52z"/>
	<path fill="#FFFFFF" d="M366.41,337.87c1.309-0.325,2.579-0.788,3.79-1.38c1.912-0.755,3.944-1.165,6-1.21
		c-2.392-0.078-4.773,0.334-7,1.21c-1.211,0.592-2.481,1.055-3.79,1.38c-0.18,0-0.36,0-0.54,0.06
		C365.384,337.977,365.901,337.956,366.41,337.87z"/>
	<path fill="#FFFFFF" d="M358.42,347.42c-0.79-0.23-2.06-1.42-2.71-1.44c3.098,0.048,6.169-0.58,9-1.84
		c-0.635,0.262-1.313,0.404-2,0.42c-2.551,0.981-5.267,1.463-8,1.42c0.65,0,1.92,1.2,2.71,1.44c0.687,0.167,1.396,0.225,2.1,0.17
		C359.147,347.581,358.778,347.523,358.42,347.42z"/>
	<path fill="#FFFFFF" d="M382.33,370.08c-2.449-0.088-4.846-0.74-7-1.91c-3.89-2.27-6.11-6.639-7.15-11
		c-0.337-2.165-0.949-4.278-1.819-6.29c-0.937-1.891-2.823-3.126-4.931-3.23c-0.499-0.037-1-0.037-1.5,0h0.49
		c2.107,0.104,3.994,1.339,4.93,3.23c0.871,2.011,1.482,4.125,1.82,6.29c1,4.381,3.26,8.75,7.15,11c2.154,1.17,4.55,1.822,7,1.91
		c0.58,0,1.16,0,1.75,0H382.33z"/>
	<path fill="#FFFFFF" d="M362.08,344.52c-2.149-0.155-4.075-1.385-5.12-3.27c-0.396-0.084-0.787-0.194-1.17-0.33
		C356.936,343.31,359.439,344.743,362.08,344.52z"/>
</g>
<path opacity="0.2" fill="#FFFFFF" enable-background="new    " d="M326.89,328.61c0,0-3-2.52,0-7.06
	c0.809-1.318,2.199-2.169,3.74-2.29c-1.891-0.222-3.739,0.671-4.74,2.29c-3,4.54,0,7.06,0,7.06c1.947,0.436,3.936,0.657,5.931,0.66
	C330.161,329.188,328.512,328.967,326.89,328.61z"/>
<g opacity="0.2">
	
		<linearGradient id="SVGID_15_" gradientUnits="userSpaceOnUse" x1="-2.6899" y1="392.7192" x2="-2.6899" y2="393.0292" gradientTransform="matrix(1 0 0 -1 39.5 721.5693)">
		<stop  offset="0" style="stop-color:#808080;stop-opacity:0.25"/>
		<stop  offset="0.54" style="stop-color:#808080;stop-opacity:0.12"/>
		<stop  offset="1" style="stop-color:#808080;stop-opacity:0.1"/>
	</linearGradient>
	<path fill="url(#SVGID_15_)" d="M36.97,328.85l0.08-0.27C37.05,328.58,36.03,328.38,36.97,328.85z"/>
</g>
<g opacity="0.2">
	
		<linearGradient id="SVGID_16_" gradientUnits="userSpaceOnUse" x1="34.2134" y1="196.2207" x2="34.2134" y2="398.6816" gradientTransform="matrix(1 0 0 -1 39.5 721.5693)">
		<stop  offset="0" style="stop-color:#808080;stop-opacity:0.25"/>
		<stop  offset="0.54" style="stop-color:#808080;stop-opacity:0.12"/>
		<stop  offset="1" style="stop-color:#808080;stop-opacity:0.1"/>
	</linearGradient>
	<path fill="url(#SVGID_16_)" d="M131.2,345.61c-0.097-0.318-0.217-0.629-0.36-0.93c0-0.1-0.1-0.18-0.15-0.27
		c-0.09-0.179-0.191-0.353-0.3-0.52l-0.2-0.26c-0.103-0.135-0.213-0.266-0.33-0.39l-0.23-0.23c-0.12-0.11-0.24-0.21-0.36-0.3
		l-0.25-0.18l-0.4-0.24l-0.25-0.13l-0.45-0.19l-0.23-0.09c-0.213-0.073-0.43-0.133-0.65-0.18l0,0
		c-1.455-0.275-2.952-0.234-4.39,0.12c0,0-4.19,6.18-2.58,8.4l-0.53-0.16c0,0-31.13,34.74-48.69,41.189
		c-0.447-0.307-0.91-0.593-1.39-0.859v-6.5c0.015-0.273,0.015-0.547,0-0.82l0,0c-0.03-0.258-0.073-0.516-0.13-0.77l0.13-0.07
		l0.52-0.29l0.75-0.46l0.48-0.311c0.36-0.246,0.693-0.506,1-0.779l0.39-0.34c0.24-0.2,0.47-0.41,0.69-0.631l0.4-0.389
		c0.28-0.287,0.547-0.58,0.8-0.881l0.28-0.34c0.24-0.301,0.47-0.607,0.69-0.92l0.28-0.42c0.2-0.307,0.39-0.62,0.57-0.939l0.18-0.311
		c0.22-0.41,0.43-0.84,0.61-1.28l0.16-0.39c0.14-0.354,0.27-0.711,0.39-1.07c0-0.13,0.09-0.25,0.12-0.38
		c0.14-0.47,0.27-0.94,0.37-1.431c0-0.1,0-0.189,0.05-0.289c0.08-0.407,0.144-0.82,0.19-1.24c0-0.141,0-0.28,0-0.42
		c0-0.51,0.08-1,0.08-1.551c0-3.891-1.333-7.664-3.78-10.689c1.33-2.08,2.2-3.31,2.2-3.31c-0.8-0.55-1.59-1.05-2.37-1.54l-0.76-0.45
		c-0.52-0.31-1-0.62-1.56-0.9l-0.87-0.46c-0.47-0.25-0.93-0.49-1.39-0.71l-0.89-0.41l-1.33-0.58l-0.87-0.35
		c-0.44-0.17-0.88-0.33-1.31-0.48l-0.82-0.28c-0.45-0.14-0.9-0.27-1.34-0.39l-0.73-0.2c-0.5-0.12-1-0.22-1.49-0.32l-0.53-0.11
		c-0.67-0.12-1.33-0.21-2-0.271l0,0c-4.092-0.438-8.228,0.196-12,1.84c0.2-4.78,1-8.72,2.68-11.16l-0.41-0.14l-0.14,0.14
		c0,0-0.49,0.11-1.26,0.25c-0.243,0.389-0.46,0.793-0.65,1.21c0.336-1.691,0.984-3.305,1.91-4.76l-0.41-0.14
		c0.59-0.61,2.73-3.24-0.14-7.55c-3.3-4.94-9.34-1.1-9.34-1.1c-0.479,1.631-0.793,3.306-0.94,5c-0.46-0.19-0.79-0.33-1-0.44
		c-2.894,10.21-4.47,20.749-4.69,31.36c-10.89,15.46-15.39,38.279-16.27,43.199l0,0l-0.07,0.391l0,0
		c-0.06,0.359-0.09,0.551-0.09,0.551l28.31,0.66c0,0.1,0,0.189,0,0.289v44.83L23.5,493.74c0,0,7.84,0.25,19.64,1.76l-3.26,23.311
		l0,0l-1.09,6.539h19.62c2.18-4.359-8.72-6.539-8.72-6.539h-0.24l4.25-21.75c1.88,0.313,3.813,0.646,5.8,1
		c2.913,0.563,5.865,0.898,8.83,1l0,0c2.455,0.086,4.912-0.021,7.35-0.32c1.44,11.791-0.45,18.83-0.81,20h-0.11l-1.09,6.541h19.62
		c1.9-3.801-6.14-5.951-8.23-6.432l0.09-0.639c1.009-7.355,1.267-14.793,0.77-22.201c2.532-1.025,4.892-2.432,7-4.17l0,0l0.27-0.24
		l0,0l0.08-0.08l-14.61-41c2.73-11.6-6.77-23.779-1.7-29.869c5.07-6.09,2-13.859,1.4-15.189c13.72-6,41.45-21,49.23-47
		c0.572-1.828,1.036-3.688,1.39-5.57C128.98,352.89,132.9,351.3,131.2,345.61z"/>
</g>
<path fill="#FF5252" d="M40.08,336.46c0,0-14.87,46.911,10.07,72.879l7.2-5.51c0,0-14.74-51.2-6.49-63.22
	C36.3,335.76,40.08,336.46,40.08,336.46z"/>
<path fill="#F6B9AD" d="M50.36,340.6c0,0,3-2.52,0-7.06s-8.57-1-8.57-1s-2,6.55,0,8.06C43.79,342.11,50.36,340.6,50.36,340.6z"/>
<path fill="#F6B9AD" d="M62.705,401.07L62.705,401.07c-3.896,0-7.055-3.16-7.055-7.061v-6.789c0-3.899,3.159-7.061,7.055-7.061l0,0
	c3.896,0,7.055,3.161,7.055,7.061v6.789C69.76,397.91,66.602,401.07,62.705,401.07z"/>
<path opacity="0.2" fill="#FFFFFF" enable-background="new    " d="M56.34,406.849c0,0-14.56-50.568-6.63-62.999
	c0.7-0.13,1.15-0.23,1.15-0.23l0.13-0.12l0.37,0.12c-8.25,12,6.49,63.219,6.49,63.219l-7.2,5.51l-0.63-0.68L56.34,406.849z"/>
<circle fill="#F6B9AD" cx="62.45" cy="371.85" r="15.62"/>
<path opacity="0.2" fill="#FFFFFF" enable-background="new    " d="M68,394.02v-6.8c0-0.498-0.054-0.994-0.16-1.48
	c7.674-3.941,10.7-13.357,6.759-21.031c-2.532-4.929-7.486-8.147-13.019-8.459h0.88c8.627-0.002,15.622,6.988,15.625,15.615
	c0.002,5.854-3.27,11.218-8.475,13.896c0.106,0.485,0.16,0.981,0.16,1.479v6.801c0.035,3.865-3.07,7.027-6.936,7.063
	c-0.336,0.004-0.671-0.018-1.004-0.063C65.358,400.583,68,397.578,68,394.02z"/>
<path fill="#FF5252" d="M46.58,449.701c0,0,30.13,3.398,31.24,0c3.6-11-6-22.891-1.2-28.701c5-6,1.2-14.129,1.2-14.129
	c0-8.627-6.993-15.621-15.62-15.621l0,0c-8.627,0-15.62,6.994-15.62,15.621V449.701z"/>
<path opacity="0.2" fill="#FFFFFF" enable-background="new    " d="M76.66,421c5-6,1.2-14.129,1.2-14.129
	c0-8.627-6.993-15.621-15.62-15.621c-0.34,0-0.67,0-1,0.051c8.217,0.521,14.615,7.336,14.62,15.57c0,0,3.8,8.129-1.2,14.129
	c-4.84,5.811,4.8,17.691,1.2,28.701c-0.34,1.049-3.45,1.449-7.58,1.51c5.09,0.049,9.19-0.291,9.58-1.51
	C81.5,438.679,71.82,426.81,76.66,421z"/>
<path fill="#F6B9AD" d="M71.43,448.701L71.43,448.701c11,15.59,15.87,39.148,12.72,61.809l-0.09,0.682h-9.39c0,0,2.91-8.57,0-23.682
	c-1.784-9.059-6.856-17.137-14.24-22.68l-9.06,46.361h-8.74l8.74-62.49H71.43z"/>
<path fill="#F6B9AD" d="M124.39,358.83c0,0,3.63-1.52,2.07-6.75s-7.9-3.47-7.9-3.47s-3.85,5.67-2.36,7.71
	C117.69,358.36,124.39,358.83,124.39,358.83z"/>
<path fill="#FF5252" d="M70.94,409.39c0,0,46.81-15.17,53.44-50.561l-8.67-2.66c0,0-34.45,38.461-49,38.73
	S70.94,409.39,70.94,409.39z"/>
<path opacity="0.2" fill="#FFFFFF" enable-background="new    " d="M122.79,358.871l1.45,0.439
	c-6.63,35.391-53.44,50.561-53.44,50.561l-0.83-0.65C75.5,407.3,116.61,391.88,122.79,358.871z"/>
<g opacity="0.2">
	<path fill="#FFFFFF" d="M58.42,464.83l-9.06,46.361h2l8.8-45C59.604,465.707,59.023,465.253,58.42,464.83z"/>
	<path fill="#FFFFFF" d="M71.43,448.701h-2c11,15.59,15.87,39.148,12.72,61.809l-0.09,0.682h2l0.09-0.682
		C87.3,487.849,82.45,464.291,71.43,448.701z"/>
</g>
<path opacity="0.2" fill="#FFFFFF" enable-background="new    " d="M123.42,358.52c0,0,3.63-1.521,2.07-6.75
	c-0.385-1.498-1.463-2.721-2.9-3.29c1.873,0.342,3.378,1.738,3.86,3.58c1.56,5.221-2.07,6.75-2.07,6.75
	c-1.987-0.152-3.953-0.521-5.86-1.1C120.128,358.116,121.767,358.386,123.42,358.52z"/>
<path fill="#263238" d="M46.58,448l-19,40c11.081,0.553,22.108,1.891,33,4c21,4,31-6,31-6l-13.55-38H46.58z"/>
<path fill="#FF5252" d="M51.62,511c0,0,10,2,8,6h-18l1-6H51.62z"/>
<path fill="#FF5252" d="M83.62,511c0,0,10,2,8,6h-18l1-6H83.62z"/>
<path fill="#FCCC63" d="M76.62,359c0,0-24,34-13,48l-43-1C20.62,406,32.62,329,76.62,359z"/>
<path opacity="0.2" fill="#FFFFFF" enable-background="new    " d="M76.62,359c-6.2-4.229-11.76-6.33-16.75-6.819
	c4.195,1.318,8.159,3.281,11.75,5.819c0,0-24,34-13,48l-37.85-0.879c-0.1,0.57-0.15,0.879-0.15,0.879l43,1
	C52.62,393,76.62,359,76.62,359z"/>
<path opacity="0.2" fill="#FFFFFF" enable-background="new    " d="M78.08,448h-3l13.55,38c0,0-6.46,6.451-19.9,6.91
	c15.47,0.5,22.9-6.91,22.9-6.91L78.08,448z"/>
<path opacity="0.2" fill="#FFFFFF" enable-background="new    " d="M51.62,511h-2c0,0,10,2,8,6h2C61.62,513,51.62,511,51.62,511z"/>
<path opacity="0.2" fill="#FFFFFF" enable-background="new    " d="M83.62,511h-2c0,0,10,2,8,6h2C93.62,513,83.62,511,83.62,511z"/>
<rect x="500.62" y="167.68" fill="#F5F5F5" width="383" height="14.5"/>
<linearGradient id="SVGID_17_" gradientUnits="userSpaceOnUse" x1="498.001" y1="157" x2="498.0009" y2="653" gradientTransform="matrix(1 0 0 -1 194 816.0498)">
	<stop  offset="0" style="stop-color:#808080;stop-opacity:0.25"/>
	<stop  offset="0.54" style="stop-color:#808080;stop-opacity:0.12"/>
	<stop  offset="1" style="stop-color:#808080;stop-opacity:0.1"/>
</linearGradient>
<rect x="493" y="163.05" fill="url(#SVGID_17_)" width="398" height="496"/>
<rect x="500.62" y="182.18" fill="#FFFFFF" width="383" height="459.499"/>
<circle fill="#FF5252" cx="509.5" cy="175.18" r="3.5"/>
<circle fill="#FFFF00" cx="519.12" cy="175.18" r="3.5"/>
<circle fill="#69F0AE" cx="528.75" cy="175.18" r="3.5"/>
<g opacity="0.2">
	<rect x="524.62" y="202.68" fill="#6415FF" width="336" height="9"/>
</g>
<linearGradient id="SVGID_18_" gradientUnits="userSpaceOnUse" x1="401.1206" y1="420.3696" x2="401.1206" y2="574.3687" gradientTransform="matrix(1 0 0 -1 194 816.0498)">
	<stop  offset="0" style="stop-color:#808080;stop-opacity:0.25"/>
	<stop  offset="0.54" style="stop-color:#808080;stop-opacity:0.12"/>
	<stop  offset="1" style="stop-color:#808080;stop-opacity:0.1"/>
</linearGradient>
<rect x="522.62" y="241.68" fill="url(#SVGID_18_)" width="145" height="154"/>
<rect x="525.62" y="246.68" fill="#FFFFFF" width="139" height="144"/>
<linearGradient id="SVGID_19_" gradientUnits="userSpaceOnUse" x1="594.1211" y1="343.3711" x2="594.1211" y2="497.3691" gradientTransform="matrix(1 0 0 -1 194 816.0498)">
	<stop  offset="0" style="stop-color:#808080;stop-opacity:0.25"/>
	<stop  offset="0.54" style="stop-color:#808080;stop-opacity:0.12"/>
	<stop  offset="1" style="stop-color:#808080;stop-opacity:0.1"/>
</linearGradient>
<rect x="715.62" y="318.68" fill="url(#SVGID_19_)" width="145" height="153.999"/>
<rect x="718.62" y="323.68" fill="#FFFFFF" width="139" height="143.999"/>
<linearGradient id="SVGID_20_" gradientUnits="userSpaceOnUse" x1="502.1211" y1="201.3711" x2="502.1211" y2="307.3711" gradientTransform="matrix(1 0 0 -1 194 816.0498)">
	<stop  offset="0" style="stop-color:#808080;stop-opacity:0.25"/>
	<stop  offset="0.54" style="stop-color:#808080;stop-opacity:0.12"/>
	<stop  offset="1" style="stop-color:#808080;stop-opacity:0.1"/>
</linearGradient>
<rect x="525.62" y="508.679" fill="url(#SVGID_20_)" width="341" height="106"/>
<rect x="532.62" y="515.679" opacity="0.5" fill="#6415FF" enable-background="new    " width="328" height="95"/>
<polygon opacity="0.5" fill="#FFFFFF" enable-background="new    " points="540.62,524.679 860.62,524.679 860.62,515.679 
	532.62,515.679 532.62,610.679 540.62,610.679 "/>
<linearGradient id="SVGID_21_" gradientUnits="userSpaceOnUse" x1="555.0898" y1="340.9033" x2="555.0898" y2="464.9053" gradientTransform="matrix(1 0 0 -1 39.5 721.5693)">
	<stop  offset="0" style="stop-color:#808080;stop-opacity:0.25"/>
	<stop  offset="0.54" style="stop-color:#808080;stop-opacity:0.12"/>
	<stop  offset="1" style="stop-color:#808080;stop-opacity:0.1"/>
</linearGradient>
<path fill="url(#SVGID_21_)" d="M641.59,278.23c-22.332-25.958-61.478-28.896-87.435-6.565
	c-25.958,22.332-28.897,61.478-6.565,87.435c22.332,25.958,61.478,28.897,87.436,6.565c13.687-11.775,21.561-28.931,21.564-46.985
	C656.607,303.833,651.283,289.476,641.59,278.23z M616.59,355.7c-20.431,12.106-46.808,5.358-58.913-15.074
	c-12.106-20.431-5.357-46.807,15.073-58.914c20.431-12.106,46.808-5.357,58.913,15.074c3.931,6.634,6.006,14.203,6.007,21.914
	c0.047,15.195-7.964,29.276-21.05,37H616.59z"/>
<path fill="#FF5252" d="M625.67,291.94l13.65-11.75c-11.192-13.033-27.521-20.525-44.7-20.51v18
	C606.555,277.677,617.896,282.885,625.67,291.94z"/>
<path fill="#69F0AE" d="M594.62,359.669c-5.838,0.004-11.608-1.248-16.92-3.669l-7.431,16.41c17.563,7.965,37.909,6.846,54.49-3
	l-9.2-15.49C609.229,357.696,601.991,359.683,594.62,359.669z"/>
<path fill="#FF9800" d="M653.62,318.67c0.018-14.132-5.06-27.797-14.3-38.49l-13.65,11.75c14.788,17.097,12.917,42.944-4.18,57.732
	c-1.846,1.596-3.83,3.024-5.931,4.268l9.2,15.489C642.662,358.782,653.631,339.494,653.62,318.67z"/>
<path fill="#6415FF" d="M553.62,318.67c0-22.644,18.356-41,41-41l0,0v-18c-32.585,0.001-58.999,26.417-58.998,59.002
	c0.001,23.161,13.552,44.179,34.647,53.738L577.7,356C563.044,349.36,553.626,334.76,553.62,318.67z"/>
<linearGradient id="SVGID_22_" gradientUnits="userSpaceOnUse" x1="596.6211" y1="453.3696" x2="596.6211" y2="471.3687" gradientTransform="matrix(1 0 0 -1 194 816.0498)">
	<stop  offset="0" style="stop-color:#808080;stop-opacity:0.25"/>
	<stop  offset="0.54" style="stop-color:#808080;stop-opacity:0.12"/>
	<stop  offset="1" style="stop-color:#808080;stop-opacity:0.1"/>
</linearGradient>
<rect x="737.62" y="344.68" fill="url(#SVGID_22_)" width="106" height="18"/>
<rect x="738.62" y="345.68" fill="#6415FF" width="104" height="16"/>
<rect x="738.62" y="372.68" fill="#FF5252" width="76" height="16"/>
<rect x="738.62" y="399.679" fill="#69F0AE" width="52" height="16"/>
<rect x="738.62" y="426.679" fill="#FF9800" width="94" height="16"/>
<rect x="525.62" y="419.679" fill="#F5F5F5" width="149" height="9"/>
<rect x="525.62" y="434.679" fill="#F5F5F5" width="84" height="9"/>
<rect x="624.62" y="434.679" fill="#F5F5F5" width="29" height="9"/>
<rect x="624.62" y="467.679" fill="#F5F5F5" width="29" height="9"/>
<rect x="525.62" y="464.679" fill="#F5F5F5" width="84" height="9"/>
<rect x="525.62" y="449.679" fill="#F5F5F5" width="149" height="9"/>
<rect x="713.62" y="242.68" fill="#F5F5F5" width="149" height="9"/>
<rect x="713.62" y="257.68" fill="#F5F5F5" width="84" height="9"/>
<rect x="812.62" y="257.68" fill="#F5F5F5" width="29" height="9"/>
<rect x="812.62" y="290.68" fill="#F5F5F5" width="29" height="9"/>
<rect x="713.62" y="287.68" fill="#F5F5F5" width="84" height="9"/>
<rect x="713.62" y="272.68" fill="#F5F5F5" width="149" height="9"/>
<linearGradient id="SVGID_23_" gradientUnits="userSpaceOnUse" x1="566.6211" y1="116.3711" x2="566.6211" y2="138.3711" gradientTransform="matrix(1 0 0 -1 194 816.0498)">
	<stop  offset="0" style="stop-color:#808080;stop-opacity:0.25"/>
	<stop  offset="0.54" style="stop-color:#808080;stop-opacity:0.12"/>
	<stop  offset="1" style="stop-color:#808080;stop-opacity:0.1"/>
</linearGradient>
<circle fill="url(#SVGID_23_)" cx="760.62" cy="688.679" r="11"/>
<circle fill="#FF5252" cx="760.62" cy="688.679" r="8"/>
<linearGradient id="SVGID_24_" gradientUnits="userSpaceOnUse" x1="413.6201" y1="128.3711" x2="413.6201" y2="249.3711" gradientTransform="matrix(1 0 0 -1 194 816.0498)">
	<stop  offset="0" style="stop-color:#808080;stop-opacity:0.25"/>
	<stop  offset="0.54" style="stop-color:#808080;stop-opacity:0.12"/>
	<stop  offset="1" style="stop-color:#808080;stop-opacity:0.1"/>
</linearGradient>
<rect x="435.62" y="566.679" fill="url(#SVGID_24_)" width="344" height="121"/>
<rect x="445.62" y="571.679" fill="#FFFFFF" width="328" height="95"/>
<line fill="none" stroke="#6415FF" stroke-width="3" stroke-miterlimit="10" x1="456.62" y1="648.679" x2="760.62" y2="648.679"/>
<linearGradient id="SVGID_25_" gradientUnits="userSpaceOnUse" x1="288.1201" y1="170.3711" x2="288.1201" y2="225.3711" gradientTransform="matrix(1 0 0 -1 194 816.0498)">
	<stop  offset="0" style="stop-color:#808080;stop-opacity:0.25"/>
	<stop  offset="0.54" style="stop-color:#808080;stop-opacity:0.12"/>
	<stop  offset="1" style="stop-color:#808080;stop-opacity:0.1"/>
</linearGradient>
<rect x="459.62" y="590.679" fill="url(#SVGID_25_)" width="45" height="55"/>
<rect x="462.12" y="593.179" fill="#6415FF" width="40" height="51"/>
<rect x="712.62" y="629.679" fill="#69F0AE" width="40" height="16"/>
<rect x="637.62" y="608.679" fill="#FF9800" width="40" height="36"/>
<rect x="549.62" y="614.679" fill="#FF5252" width="40" height="30"/>
<rect x="445.62" y="666.679" fill="#FF5252" width="328" height="14"/>
<linearGradient id="SVGID_26_" gradientUnits="userSpaceOnUse" x1="265.6201" y1="116.3711" x2="265.6201" y2="138.3711" gradientTransform="matrix(1 0 0 -1 194 816.0498)">
	<stop  offset="0" style="stop-color:#808080;stop-opacity:0.25"/>
	<stop  offset="0.54" style="stop-color:#808080;stop-opacity:0.12"/>
	<stop  offset="1" style="stop-color:#808080;stop-opacity:0.1"/>
</linearGradient>
<circle fill="url(#SVGID_26_)" cx="459.62" cy="688.679" r="11"/>
<circle fill="#FF5252" cx="459.62" cy="688.679" r="8"/>
<rect x="437.62" y="575.679" fill="#FF5252" width="8" height="105"/>
<rect x="437.62" y="575.679" opacity="0.2" enable-background="new    " width="8" height="105"/>
<linearGradient id="SVGID_27_" gradientUnits="userSpaceOnUse" x1="292.3301" y1="107.2339" x2="406.6504" y2="107.2339" gradientTransform="matrix(1 0 0 -1 39.5 721.5693)">
	<stop  offset="0" style="stop-color:#808080;stop-opacity:0.25"/>
	<stop  offset="0.54" style="stop-color:#808080;stop-opacity:0.12"/>
	<stop  offset="1" style="stop-color:#808080;stop-opacity:0.1"/>
</linearGradient>
<path fill="url(#SVGID_27_)" d="M446.15,586.839c0-0.109,0-0.209,0-0.32c0-0.109,0-0.328,0-0.488s0-0.211-0.061-0.311
	c-0.06-0.1-0.07-0.301-0.12-0.439c-0.05-0.141-0.06-0.191-0.1-0.291s-0.12-0.279-0.18-0.42l-0.12-0.25
	c-0.08-0.141-0.17-0.279-0.26-0.41l-0.131-0.189c-0.131-0.18-0.271-0.354-0.42-0.52l0,0l0,0c-0.797-0.852-1.742-1.549-2.79-2.061
	c0.819-0.881,1.432-1.934,1.79-3.08c0.104-0.307,0.185-0.621,0.24-0.939c0-0.1,0-0.201,0-0.291c0.027-0.191,0.044-0.385,0.05-0.58
	c0-0.109,0-0.209,0-0.32c0-0.109,0-0.33,0-0.488c0-0.16,0-0.211-0.06-0.311c-0.061-0.1-0.07-0.301-0.12-0.439
	c-0.05-0.141-0.06-0.191-0.1-0.291s-0.12-0.279-0.181-0.42l-0.12-0.25c-0.08-0.141-0.17-0.279-0.26-0.41l-0.13-0.189
	c-0.131-0.18-0.271-0.354-0.42-0.52l0,0l0,0c-0.997-1.047-2.208-1.865-3.55-2.4c0,0-6.351,2.35-6.771,4.93
	c-4.66,1-31.819,6.65-50.47,6.199l-0.14-0.369c0.002-6.148-3.396-11.795-8.83-14.67v-6.281c0.014-0.266,0.014-0.533,0-0.799l0,0
	c-0.027-0.256-0.067-0.51-0.12-0.76l0.12-0.07l0.51-0.279l0.74-0.451l0.47-0.311c0.347-0.238,0.68-0.492,1-0.76l0.38-0.33
	c0.23-0.199,0.45-0.398,0.67-0.609l0.391-0.381c0.272-0.279,0.533-0.566,0.779-0.859l0.271-0.34c0.233-0.293,0.456-0.594,0.67-0.9
	l0.27-0.41c0.193-0.299,0.38-0.605,0.561-0.92l0.17-0.299c0.22-0.4,0.42-0.82,0.6-1.24l0.15-0.381c0.14-0.34,0.267-0.672,0.38-1
	l0.12-0.369c0.14-0.461,0.26-0.92,0.359-1.391c0-0.09,0-0.189,0.051-0.279c0.073-0.4,0.133-0.805,0.18-1.211c0-0.139,0-0.27,0-0.41
	c0-0.5,0.08-1,0.08-1.51c0-2.842-0.734-5.635-2.13-8.109c1.069-0.26,1.72-0.471,1.64-0.57c-0.41-0.551-0.82-1.07-1.25-1.57
	l-0.41-0.469c-0.3-0.342-0.59-0.66-0.89-1l-0.48-0.49c-0.3-0.301-0.6-0.58-0.899-0.85l-0.47-0.422
	c-0.381-0.318-0.761-0.629-1.141-0.93l-0.25-0.199c-0.46-0.34-0.92-0.66-1.39-1l-0.521-0.32c-0.3-0.189-0.609-0.369-0.92-0.529
	l-0.62-0.32l-0.859-0.41l-0.63-0.279c-0.301-0.131-0.61-0.24-0.92-0.352l-0.57-0.209c-0.46-0.15-0.92-0.291-1.38-0.41l-0.71-0.16
	l-0.771-0.16l-0.77-0.119l-0.71-0.08l-0.79-0.07h-0.681h-0.79c-0.433,0-0.866,0.02-1.3,0.061l0,0
	c-10.229,0.84-19.189,9.77-19.189,24v11.738h16v5.342c-5.872,2.709-9.635,8.582-9.641,15.049v45.51l-13.58,62.391h-0.18l-2.67,11.91
	l19.16,3.1l0,0l0.83,0.131c2-0.861-1.351-4.891-2.86-8c-0.154-0.326-0.288-0.66-0.4-1c-0.211-0.629-0.338-1.279-0.38-1.941
	L362.9,644.72h-0.07l0.35-1.131c0,0,18.74,8,23.561,24.09c3.91,13,1.479,21.461,0.42,24.201h-0.07v0.16
	c-0.21,0.52-0.359,0.809-0.359,0.809h0.359v8.83h20.26c1.881-0.949-2.109-3.719-4.1-6c-0.651-0.723-1.106-1.6-1.32-2.549h0.34
	l0.16-0.721c5.183-24.07-2.752-49.086-20.859-65.77c0.037-0.053,0.067-0.109,0.09-0.17c1.912-5.852,3.091-11.918,3.51-18.061
	c15.49,1.48,36.1,0.42,51.51-11.52c1.472-1.111,2.877-2.307,4.21-3.58c1.33-0.1,3.66-0.84,4.95-4.6
	c0.104-0.307,0.184-0.621,0.24-0.939c0-0.102,0-0.201,0-0.291C446.116,587.269,446.14,587.054,446.15,586.839z"/>
<path fill="#6415FF" d="M364.99,604.46c0,0,46.899,14.91,72.88-10l-5.51-7.211c0,0-50.4,11.23-62.41,3S364.99,604.46,364.99,604.46z
	"/>
<path opacity="0.2" fill="#FFFFFF" enable-background="new    " d="M436.55,593.519l0.92,1.201c-26,24.92-72.88,10-72.88,10
	s-0.12-0.381-0.3-1C369.88,605.39,412.31,616.8,436.55,593.519z"/>
<path fill="#985454" d="M436.87,594.451c0,0,3.84,0.869,5.61-4.281c1.77-5.15-4.4-7.42-4.4-7.42s-6.43,2.371-6.41,4.891
	C431.69,590.16,436.87,594.451,436.87,594.451z"/>
<path opacity="0.2" fill="#FFFFFF" enable-background="new    " d="M436.26,593.64c0,0,3.84,0.869,5.61-4.279
	c0.556-1.443,0.389-3.063-0.45-4.361c1.326,1.367,1.74,3.381,1.061,5.16c-1.771,5.16-5.61,4.281-5.61,4.281
	c-1.526-1.283-2.908-2.729-4.12-4.311C433.82,591.396,434.994,592.57,436.26,593.64z"/>
<path id="_x34_635430b-7803-4f1f-9770-b56b2b482545" fill="#6415FF" d="M387.2,687.269h13.89c-0.104,1.324,0.374,2.629,1.311,3.57
	c1.869,2.16,5.63,4.771,3.859,5.66H387.2V687.269z"/>
<path opacity="0.2" fill="#FFFFFF" enable-background="new    " d="M401.39,690.839c-0.936-0.941-1.414-2.246-1.31-3.57h1
	c-0.104,1.324,0.374,2.629,1.31,3.57c1.87,2.16,5.63,4.771,3.86,5.66h-1C407.02,695.611,403.26,693.009,401.39,690.839z"/>
<path id="a892faa3-7b18-4010-9d55-72c2aac7ddb8" fill="#6415FF" d="M337.73,684.41l13,2.131c-0.359,1.547-0.15,3.174,0.59,4.58
	c1.42,3,4.609,6.74,2.689,7.549l-18.819-3L337.73,684.41z"/>
<path opacity="0.2" fill="#FFFFFF" enable-background="new    " d="M350.33,691.111c-0.74-1.406-0.949-3.033-0.59-4.58l-12.05-2
	v-0.16l13,2.129c-0.36,1.549-0.15,3.174,0.59,4.58c1.42,3,4.609,6.74,2.689,7.551l-0.79-0.131
	C354.66,697.519,351.69,693.929,350.33,691.111z"/>
<path fill="#985454" d="M366.705,577.07L366.705,577.07c-3.896,0-7.055-3.16-7.055-7.061v-6.789c0-3.898,3.158-7.061,7.055-7.061
	l0,0c3.896,0,7.055,3.162,7.055,7.061v6.789C373.76,573.91,370.602,577.07,366.705,577.07z"/>
<circle fill="#985454" cx="366.45" cy="547.85" r="15.62"/>
<path opacity="0.2" fill="#FFFFFF" enable-background="new    " d="M372,570.019v-6.799c-0.001-0.498-0.055-0.994-0.16-1.48
	c7.674-3.941,10.7-13.357,6.759-21.031c-2.532-4.928-7.485-8.148-13.019-8.459h0.88c8.627-0.002,15.622,6.988,15.625,15.615
	c0.002,5.854-3.27,11.217-8.475,13.895c0.105,0.486,0.159,0.982,0.159,1.48v6.801c0.035,3.865-3.07,7.027-6.936,7.063
	c-0.336,0.004-0.671-0.018-1.004-0.063C369.358,576.583,371.999,573.578,372,570.019z"/>
<path fill="#6415FF" d="M350.58,625.701c0,0,30.13,3.398,31.24,0c7.81-23.941,0-42.83,0-42.83c0-8.627-6.993-15.621-15.62-15.621
	l0,0c-8.627,0-15.62,6.994-15.62,15.621V625.701z"/>
<path fill="#263238" d="M350.58,625.701l-13.61,62.49h13.61l14.11-46.361c0,0,17.64,7.561,22.17,22.68
	c4.529,15.121,0,23.682,0,23.682h14.64l0.15-0.682c4.895-22.66-2.65-46.211-19.801-61.809l0,0"/>
<path opacity="0.2" fill="#FFFFFF" enable-background="new    " d="M380.06,625.701c7.811-23.941,0-42.83,0-42.83
	c0.002-8.236-6.392-15.059-14.609-15.59c0.33,0,0.67,0,1,0l0,0c8.627,0,15.62,6.992,15.62,15.619c0,0,7.81,18.9,0,42.83
	c-0.4,1.221-4.521,1.561-9.641,1.51C376.59,627.15,379.72,626.75,380.06,625.701z"/>
<g opacity="0.2">
	<path fill="#FFFFFF" d="M364.43,642.929l-13.85,45.512h-2l14.11-46.361C362.69,642.08,363.34,642.361,364.43,642.929z"/>
	<path fill="#FFFFFF" d="M379.81,625.951h2c17.15,15.598,24.695,39.148,19.801,61.809l-0.15,0.682h-2l0.15-0.682
		C404.505,665.099,396.96,641.548,379.81,625.951z"/>
</g>
<path fill="#6415FF" d="M362.99,594.46c0,0,46.899,14.91,72.88-10l-5.51-7.211c0,0-50.4,11.23-62.41,3S362.99,594.46,362.99,594.46z
	"/>
<path opacity="0.2" fill="#FFFFFF" enable-background="new    " d="M434.55,583.519l0.92,1.201c-26,24.92-72.88,10-72.88,10
	s-0.12-0.381-0.3-1C367.88,595.39,410.31,606.8,434.55,583.519z"/>
<path fill="#985454" d="M434.87,584.451c0,0,3.84,0.869,5.61-4.281c1.77-5.15-4.4-7.42-4.4-7.42s-6.43,2.371-6.41,4.891
	C429.69,580.16,434.87,584.451,434.87,584.451z"/>
<path opacity="0.2" fill="#FFFFFF" enable-background="new    " d="M434.26,583.64c0,0,3.84,0.869,5.61-4.279
	c0.556-1.443,0.389-3.063-0.45-4.361c1.326,1.367,1.74,3.381,1.061,5.16c-1.771,5.16-5.61,4.281-5.61,4.281
	c-1.526-1.283-2.908-2.729-4.12-4.311C431.82,581.396,432.994,582.57,434.26,583.64z"/>
<path fill="#263238" d="M367.62,542.669l-1,21h-22v-11.15c0-22.389,23.67-30.889,37-12.898
	C381.95,540.111,367.62,542.669,367.62,542.669z"/>
<path opacity="0.2" fill="#FFFFFF" enable-background="new    " d="M362.68,530.009c5.61,0.461,11.38,3.521,15.94,9.67
	c0.33,0.441-14,3-14,3l-1,21h3l1-21c0,0,14.33-2.559,14-3C376.25,532.419,369.19,529.519,362.68,530.009z"/>
</svg>
