<?xml version="1.0" encoding="utf-8"?>
<!-- Generator: Adobe Illustrator 16.0.0, SVG Export Plug-In . SVG Version: 6.00 Build 0)  -->
<!DOCTYPE svg PUBLIC "-//W3C//DTD SVG 1.1//EN" "http://www.w3.org/Graphics/SVG/1.1/DTD/svg11.dtd">
<svg version="1.1" id="Layer_1" xmlns="http://www.w3.org/2000/svg" xmlns:xlink="http://www.w3.org/1999/xlink" x="0px" y="0px"
	 width="1000px" height="1000px" viewBox="0 0 1000 1000" enable-background="new 0 0 1000 1000" xml:space="preserve">
<path fill="#0E161C" d="M593.75,187.5c51.758,0,93.75-41.992,93.75-93.75S645.508,0,593.75,0S500,41.992,500,93.75
	S541.992,187.5,593.75,187.5z M778.32,478.711l-45.508-23.047l-18.945-57.422C685.156,311.133,605.078,250.195,514.258,250
	c-70.313-0.195-109.18,19.727-182.227,49.219c-42.188,16.992-76.758,49.219-97.07,90.234l-13.086,26.563
	c-15.234,30.859-2.93,68.359,27.734,83.789c30.469,15.43,67.578,2.93,83.008-27.93l13.086-26.563
	c6.836-13.672,18.164-24.414,32.227-30.078l52.344-21.094l-29.688,118.555c-10.156,40.625,0.781,83.789,29.102,114.844
	L546.68,755.273c14.063,15.43,24.023,33.984,29.102,54.102l35.742,143.164c8.398,33.398,42.383,53.906,75.781,45.508
	s53.906-42.383,45.508-75.781l-43.359-173.828c-5.078-20.117-15.039-38.867-29.102-54.102l-88.867-97.07l33.594-134.18
	l10.742,32.227c10.352,31.445,32.617,57.422,61.914,72.266l45.508,23.047c30.469,15.43,67.578,2.93,83.008-27.93
	C821.289,532.031,808.984,494.141,778.32,478.711L778.32,478.711z M331.25,753.516c-6.25,15.82-15.625,30.078-27.734,41.992
	l-97.656,97.852c-24.414,24.414-24.414,64.063,0,88.477s63.867,24.414,88.281,0L410.156,865.82
	c11.914-11.914,21.289-26.172,27.734-41.992l26.367-66.016C356.25,640.039,388.672,676.172,371.68,652.93L331.25,753.516z"/>
</svg>
